<!-- Modern EV Charging Station Background -->
<svg width="1920" height="1080" viewBox="0 0 1920 1080" fill="none" xmlns="http://www.w3.org/2000/svg">
  <defs>
    <!-- Gradient Definitions -->
    <linearGradient id="primaryGradient" x1="0%" y1="0%" x2="100%" y2="100%">
      <stop offset="0%" style="stop-color:#0055A5;stop-opacity:0.8" />
      <stop offset="50%" style="stop-color:#00b4d8;stop-opacity:0.6" />
      <stop offset="100%" style="stop-color:#f97316;stop-opacity:0.4" />
    </linearGradient>
    
    <radialGradient id="spotlightGradient" cx="50%" cy="50%" r="50%">
      <stop offset="0%" style="stop-color:#00b4d8;stop-opacity:0.3" />
      <stop offset="100%" style="stop-color:#0055A5;stop-opacity:0.1" />
    </radialGradient>
    
    <!-- Grid Pattern -->
    <pattern id="modernGrid" width="80" height="80" patternUnits="userSpaceOnUse">
      <path d="M 80 0 L 0 0 0 80" fill="none" stroke="rgba(0, 180, 216, 0.08)" stroke-width="1"/>
    </pattern>
    
    <!-- Dots Pattern -->
    <pattern id="modernDots" width="40" height="40" patternUnits="userSpaceOnUse">
      <circle cx="20" cy="20" r="1.5" fill="rgba(0, 180, 216, 0.2)"/>
    </pattern>
    
    <!-- Circuit Pattern -->
    <pattern id="circuit" width="200" height="200" patternUnits="userSpaceOnUse">
      <path d="M20 20 L40 20 L40 40 L60 40 L60 60 L80 60" stroke="rgba(0, 85, 165, 0.1)" stroke-width="2" fill="none"/>
      <path d="M120 120 L140 120 L140 140 L160 140 L160 160 L180 160" stroke="rgba(249, 115, 22, 0.1)" stroke-width="2" fill="none"/>
      <circle cx="20" cy="20" r="3" fill="rgba(0, 180, 216, 0.3)"/>
      <circle cx="80" cy="60" r="3" fill="rgba(0, 180, 216, 0.3)"/>
      <circle cx="120" cy="120" r="3" fill="rgba(249, 115, 22, 0.3)"/>
      <circle cx="180" cy="160" r="3" fill="rgba(249, 115, 22, 0.3)"/>
    </pattern>
  </defs>
  
  <!-- Base Background -->
  <rect width="1920" height="1080" fill="url(#primaryGradient)"/>
  
  <!-- Grid Overlay -->
  <rect width="1920" height="1080" fill="url(#modernGrid)" opacity="0.5"/>
  
  <!-- Circuit Pattern -->
  <rect width="1920" height="1080" fill="url(#circuit)" opacity="0.3"/>
  
  <!-- Spotlight Effects -->
  <ellipse cx="400" cy="300" rx="300" ry="200" fill="url(#spotlightGradient)"/>
  <ellipse cx="1520" cy="780" rx="400" ry="250" fill="url(#spotlightGradient)"/>
  
  <!-- Floating Geometric Shapes -->
  <g opacity="0.1">
    <!-- Large charging bolt -->
    <path d="M300 150 L340 100 L320 100 L350 50 L310 50 L330 100 L310 100 Z" fill="#00b4d8" transform="rotate(15 325 100)"/>
    
    <!-- Charging station outline -->
    <rect x="1400" y="200" width="80" height="120" rx="10" fill="none" stroke="#0055A5" stroke-width="3"/>
    <rect x="1410" y="180" width="60" height="20" rx="5" fill="#0055A5"/>
    <circle cx="1430" cy="250" r="8" fill="none" stroke="#00b4d8" stroke-width="2"/>
    <circle cx="1450" cy="250" r="8" fill="none" stroke="#f97316" stroke-width="2"/>
    
    <!-- Map markers -->
    <g transform="translate(200, 600)">
      <circle cx="0" cy="0" r="15" fill="#0055A5"/>
      <path d="M0 -12 C-6 -12 -12 -6 -12 0 C-12 6 0 20 0 20 S12 6 12 0 C12 -6 6 -12 0 -12 Z" fill="#00b4d8"/>
    </g>
    
    <g transform="translate(1600, 400)">
      <circle cx="0" cy="0" r="12" fill="#f97316"/>
      <path d="M0 -9 C-5 -9 -9 -5 -9 0 C-9 5 0 15 0 15 S9 5 9 0 C9 -5 5 -9 0 -9 Z" fill="#0055A5"/>
    </g>
    
    <!-- Electric waves -->
    <g stroke="#00b4d8" stroke-width="2" fill="none" opacity="0.5">
      <path d="M100 800 Q200 780 300 800 T500 800"/>
      <path d="M1200 300 Q1300 280 1400 300 T1600 300"/>
    </g>
    
    <!-- Battery indicators -->
    <g transform="translate(150, 400)">
      <rect x="0" y="0" width="40" height="20" rx="3" fill="none" stroke="#0055A5" stroke-width="2"/>
      <rect x="40" y="6" width="4" height="8" rx="1" fill="#0055A5"/>
      <rect x="4" y="4" width="8" height="12" fill="#00b4d8"/>
      <rect x="14" y="4" width="8" height="12" fill="#00b4d8"/>
      <rect x="24" y="4" width="8" height="12" fill="#f97316"/>
    </g>
    
    <g transform="translate(1650, 700)">
      <rect x="0" y="0" width="30" height="15" rx="2" fill="none" stroke="#f97316" stroke-width="1.5"/>
      <rect x="30" y="4" width="3" height="7" rx="1" fill="#f97316"/>
      <rect x="3" y="3" width="6" height="9" fill="#0055A5"/>
      <rect x="11" y="3" width="6" height="9" fill="#00b4d8"/>
      <rect x="19" y="3" width="6" height="9" fill="#f97316"/>
    </g>
  </g>
  
  <!-- Subtle glowing orbs -->
  <g opacity="0.2">
    <circle cx="800" cy="200" r="100" fill="url(#spotlightGradient)"/>
    <circle cx="1200" cy="800" r="150" fill="url(#spotlightGradient)"/>
  </g>
</svg>
